<?xml version="1.0" encoding="UTF-8" standalone="no"?>
<!-- Created with Inkscape (http://www.inkscape.org/) -->

<svg
   xmlns:dc="http://purl.org/dc/elements/1.1/"
   xmlns:cc="http://creativecommons.org/ns#"
   xmlns:rdf="http://www.w3.org/1999/02/22-rdf-syntax-ns#"
   xmlns:svg="http://www.w3.org/2000/svg"
   xmlns="http://www.w3.org/2000/svg"
   xmlns:sodipodi="http://sodipodi.sourceforge.net/DTD/sodipodi-0.dtd"
   xmlns:inkscape="http://www.inkscape.org/namespaces/inkscape"
   width="205.80295mm"
   height="214.55438mm"
   viewBox="0 0 729.22304 760.23206"
   id="svg67444"
   version="1.1"
   inkscape:version="0.91 r13725"
   sodipodi:docname="circularcardfile-j4p4n.svg">
  <defs
     id="defs67446" />
  <sodipodi:namedview
     id="base"
     pagecolor="#ffffff"
     bordercolor="#666666"
     borderopacity="1.0"
     inkscape:pageopacity="0.0"
     inkscape:pageshadow="2"
     inkscape:zoom="0.86"
     inkscape:cx="581.50229"
     inkscape:cy="396.90054"
     inkscape:document-units="px"
     inkscape:current-layer="g68092"
     showgrid="false"
     fit-margin-top="0"
     fit-margin-left="0"
     fit-margin-right="0"
     fit-margin-bottom="0"
     inkscape:window-width="1916"
     inkscape:window-height="1035"
     inkscape:window-x="4"
     inkscape:window-y="1"
     inkscape:window-maximized="1" />
  <metadata
     id="metadata67449">
    <rdf:RDF>
      <cc:Work
         rdf:about="">
        <dc:format>image/svg+xml</dc:format>
        <dc:type
           rdf:resource="http://purl.org/dc/dcmitype/StillImage" />
        <dc:title></dc:title>
        <dc:creator>
          <cc:Agent>
            <dc:title>j4p4n</dc:title>
          </cc:Agent>
        </dc:creator>
        <cc:license
           rdf:resource="http://creativecommons.org/publicdomain/zero/1.0/" />
      </cc:Work>
      <cc:License
         rdf:about="http://creativecommons.org/publicdomain/zero/1.0/">
        <cc:permits
           rdf:resource="http://creativecommons.org/ns#Reproduction" />
        <cc:permits
           rdf:resource="http://creativecommons.org/ns#Distribution" />
        <cc:permits
           rdf:resource="http://creativecommons.org/ns#DerivativeWorks" />
      </cc:License>
    </rdf:RDF>
  </metadata>
  <g
     inkscape:label="Layer 1"
     inkscape:groupmode="layer"
     id="layer1"
     transform="translate(342.78686,36.314409)">
    <g
       id="g68092"
       transform="matrix(1.7730289,0,0,1.8792111,265.21607,-636.22332)">
      <g
         id="g68203">
        <path
           style="fill:#ececec;fill-rule:evenodd;stroke:#000000;stroke-width:5;stroke-linecap:round;stroke-linejoin:round;stroke-miterlimit:4;stroke-dasharray:none;stroke-opacity:1"
           d="m 11.267095,535.80923 c 3.466799,3.4668 54.602076,49.40188 54.602076,49.40188 l -95.336958,38.13478 -13.867194,-95.33696 z"
           id="path68019"
           inkscape:connector-curvature="0" />
        <path
           style="fill:#ececec;fill-rule:evenodd;stroke:#000000;stroke-width:5;stroke-linecap:round;stroke-linejoin:round;stroke-miterlimit:4;stroke-dasharray:none;stroke-opacity:1"
           d="m 2.6000989,563.54362 c 8.6669961,10.40039 28.6010871,61.53567 28.6010871,61.53567 l -79.736365,18.20069 -19.067391,-91.87016 40.734882,-23.40089 z"
           id="path68017"
           inkscape:connector-curvature="0" />
        <path
           style="fill:#ececec;fill-rule:evenodd;stroke:#000000;stroke-width:5;stroke-linecap:round;stroke-linejoin:round;stroke-miterlimit:4;stroke-dasharray:none;stroke-opacity:1"
           d="m -19.067392,561.81022 26.000989,97.07036 -75.402867,6.93359 6.066897,-95.33695 z"
           id="path68015"
           inkscape:connector-curvature="0" />
        <path
           sodipodi:nodetypes="cccccccccccccccccccc"
           inkscape:connector-curvature="0"
           id="path68011"
           d="m -256.53072,518.27183 c -32.88166,16.53065 -54.81512,14.28263 -76.20347,50.83759 -9.09369,30.03329 -15.5504,77.2485 13.46249,104.99086 15.88554,16.22981 29.38653,17.82872 49.85122,20.28681 29.86223,-1.5132 56.30221,-6.64468 81.58911,-14.05516 11.94951,-15.68441 35.64427,-0.66661 27.7995,-7.39128 l 100.357718,8.98443 c -9.60972,6.67345 11.435341,-26.63031 13.058361,-21.88727 -44.339471,-5.85576 -86.939479,-13.79889 -142.362999,-6.35379 l -36.03845,11.81023 -30.08129,5.16965 -16.32984,2.21557 -15.47037,-3.69261 -22.05937,-32.75128 c -16.55306,-32.34475 4.06149,-48.72078 18.04877,-67.94415 l 17.18931,-14.77048 24.9245,-11.81637 9.45411,-10.33933 -6.87572,-13.29342 z"
           style="fill:#999999;fill-rule:evenodd;stroke:#000000;stroke-width:5;stroke-linecap:round;stroke-linejoin:round;stroke-miterlimit:4;stroke-dasharray:none;stroke-opacity:1" />
        <path
           style="fill:#ececec;fill-rule:evenodd;stroke:#000000;stroke-width:5;stroke-linecap:round;stroke-linejoin:round;stroke-miterlimit:4;stroke-dasharray:none;stroke-opacity:1"
           d="m -24.267589,559.21012 -21.667491,128.27154 -157.73933,-6.06689 49.40188,-134.33844 121.038226,-59.82861 z"
           id="path68013"
           inkscape:connector-curvature="0"
           sodipodi:nodetypes="cccccc" />
        <path
           style="fill:#ececec;fill-opacity:1;fill-rule:evenodd;stroke:#000000;stroke-width:5;stroke-linecap:round;stroke-linejoin:round;stroke-miterlimit:4;stroke-dasharray:none;stroke-opacity:1"
           d="m 1.7333992,404.07089 c 4.3334981,3.4668 45.9350798,28.60109 45.9350798,28.60109 l -51.1352775,97.93705 -47.6684795,0.8667 z"
           id="path68047"
           inkscape:connector-curvature="0" />
        <path
           style="fill:#ececec;fill-opacity:1;fill-rule:evenodd;stroke:#000000;stroke-width:5;stroke-linecap:round;stroke-linejoin:round;stroke-miterlimit:4;stroke-dasharray:none;stroke-opacity:1"
           d="m -33.801285,372.8697 c 4.333498,1.7334 73.669468,15.6006 73.669468,15.6006 L -7.8002966,506.34144 -89.270061,484.67395 Z"
           id="path68045"
           inkscape:connector-curvature="0" />
        <path
           style="fill:#ececec;fill-opacity:1;fill-rule:evenodd;stroke:#000000;stroke-width:5;stroke-linecap:round;stroke-linejoin:round;stroke-miterlimit:4;stroke-dasharray:none;stroke-opacity:1"
           d="m -91.00346,350.33551 101.403855,7.8003 -51.135277,149.07233 c 0,0 -117.004448,-21.66749 -114.404348,-18.20069 2.6001,3.4668 64.13577,-138.67194 64.13577,-138.67194 z"
           id="path68043"
           inkscape:connector-curvature="0" />
        <path
           style="fill:#ececec;fill-opacity:1;fill-rule:evenodd;stroke:#000000;stroke-width:5;stroke-linecap:round;stroke-linejoin:round;stroke-miterlimit:4;stroke-dasharray:none;stroke-opacity:1"
           d="m -177.67342,335.60162 29.46778,127.40484 122.204651,7.8003 -14.733893,-149.07234 z"
           id="path68041"
           inkscape:connector-curvature="0" />
        <path
           style="fill:#ececec;fill-opacity:1;fill-rule:evenodd;stroke:#000000;stroke-width:5;stroke-linecap:round;stroke-linejoin:round;stroke-miterlimit:4;stroke-dasharray:none;stroke-opacity:1"
           d="M -247.87609,370.2696 -155.13923,513.27504 1.7333992,503.74134 -80.603065,359.00251 Z"
           id="path68039"
           inkscape:connector-curvature="0" />
        <path
           style="fill:#ececec;fill-rule:evenodd;stroke:#000000;stroke-width:5;stroke-linecap:round;stroke-linejoin:round;stroke-miterlimit:4;stroke-dasharray:none;stroke-opacity:1"
           d="m -255.67639,654.54708 c 3.4668,0 132.60504,12.13379 132.60504,12.13379 l 98.803761,-127.40484 -155.139231,-25.13429 -77.13627,136.93854 z"
           id="path68021"
           inkscape:connector-curvature="0" />
        <path
           style="fill:#ececec;fill-rule:evenodd;stroke:#000000;stroke-width:5;stroke-linecap:round;stroke-linejoin:round;stroke-miterlimit:4;stroke-dasharray:none;stroke-opacity:1"
           d="m -289.47767,634.61299 193.274012,-4.3335 52.868677,-107.47075 -143.005439,6.06689 z"
           id="path68023"
           inkscape:connector-curvature="0" />
        <path
           style="fill:#ececec;fill-rule:evenodd;stroke:#000000;stroke-width:5;stroke-linecap:round;stroke-linejoin:round;stroke-miterlimit:4;stroke-dasharray:none;stroke-opacity:1"
           d="m -227.942,501.14125 c 0,0 -78.00297,104.00395 -73.66947,103.13725 4.3335,-0.8667 182.00692,7.8003 182.00692,7.8003 l 78.869668,-94.47026 7.491274,-17.07183 z"
           id="path68025"
           inkscape:connector-curvature="0"
           sodipodi:nodetypes="cscccc" />
        <path
           style="fill:#ececec;fill-opacity:1;fill-rule:evenodd;stroke:#000000;stroke-width:5;stroke-linecap:round;stroke-linejoin:round;stroke-miterlimit:4;stroke-dasharray:none;stroke-opacity:1"
           d="m -172.47322,475.14026 -134.33845,74.53616 179.40683,-2.60009 86.669958,-47.66848 z"
           id="path68027"
           inkscape:connector-curvature="0" />
        <path
           style="fill:#ececec;fill-opacity:1;fill-rule:evenodd;stroke:#000000;stroke-width:5;stroke-linecap:round;stroke-linejoin:round;stroke-miterlimit:4;stroke-dasharray:none;stroke-opacity:1"
           d="m -293.81117,516.74184 162.93953,0 91.870157,-17.33399 -95.336957,-16.4673 -116.13775,11.2671 z"
           id="path68029"
           inkscape:connector-curvature="0" />
        <path
           style="fill:#ececec;fill-opacity:1;fill-rule:evenodd;stroke:#000000;stroke-width:5;stroke-linecap:round;stroke-linejoin:round;stroke-miterlimit:4;stroke-dasharray:none;stroke-opacity:1"
           d="m -191.54062,486.40735 -86.66996,-71.06937 163.80623,-6.06689 83.203164,93.60355 z"
           id="path68037"
           inkscape:connector-curvature="0" />
        <path
           style="fill:#ececec;fill-opacity:1;fill-rule:evenodd;stroke:#000000;stroke-width:5;stroke-linecap:round;stroke-linejoin:round;stroke-miterlimit:4;stroke-dasharray:none;stroke-opacity:1"
           d="m -292.94447,496.80775 177.67342,4.3335 80.115821,-1.57566 -87.049421,-29.62553 -97.07035,6.9336 z"
           id="path68031"
           inkscape:connector-curvature="0"
           sodipodi:nodetypes="cccccc" />
        <path
           style="fill:#ececec;fill-opacity:1;fill-rule:evenodd;stroke:#000000;stroke-width:5;stroke-linecap:round;stroke-linejoin:round;stroke-miterlimit:4;stroke-dasharray:none;stroke-opacity:1"
           d="m -225.3419,482.94055 -60.66897,-35.53468 175.94002,0.8667 70.202667,48.53518 -170.739827,-9.5337 z"
           id="path68035"
           inkscape:connector-curvature="0" />
        <path
           style="fill:#ececec;fill-opacity:1;fill-rule:evenodd;stroke:#000000;stroke-width:5;stroke-linecap:round;stroke-linejoin:round;stroke-miterlimit:4;stroke-dasharray:none;stroke-opacity:1"
           d="m -287.74427,480.34045 57.20217,6.0669 188.073819,8.667 -77.136269,-22.53419 -145.60553,0.8667 -16.4673,1.7334 z"
           id="path68033"
           inkscape:connector-curvature="0" />
        <path
           style="opacity:1;fill:#666666;fill-opacity:1;fill-rule:evenodd;stroke:#000000;stroke-width:5;stroke-linecap:round;stroke-linejoin:round;stroke-miterlimit:4;stroke-dasharray:none;stroke-opacity:1"
           d="m 28.728064,502.87463 c 2e-6,30.03287 -2.896772,57.37507 -19.0486439,63.66564 -2.9355965,1.14331 -23.6285611,-5.1302 -26.4736111,-5.1302 -18.498729,0 -21.467568,-23.0441 -21.467568,-58.53544 3e-6,-35.49133 14.996185,-64.26274 33.4949114,-64.26274 2.4840276,0 20.9413576,1.66425 23.2712436,2.64843 15.020944,6.34511 10.223666,30.88879 10.223668,61.61431 z"
           id="ellipse68007"
           inkscape:connector-curvature="0"
           sodipodi:nodetypes="sssssss" />
        <path
           style="opacity:1;fill:#999999;fill-opacity:1;fill-rule:evenodd;stroke:#000000;stroke-width:5;stroke-linecap:round;stroke-linejoin:round;stroke-miterlimit:4;stroke-dasharray:none;stroke-opacity:1"
           d="m 46.928756,504.60803 c 0,31.70528 -1.762614,61.7156 -18.381202,66.78 -1.984495,0.60476 -18.294922,-3.66271 -20.2682847,-3.66271 -18.4987293,0 -28.3403363,-27.62595 -28.3403363,-63.11729 0,-35.49134 14.9961829,-64.26275 33.494912,-64.26275 2.965079,0 17.867516,2.45737 20.605294,3.84492 14.342848,7.2692 12.889617,30.61524 12.889617,60.41783 z"
           id="ellipse68005"
           inkscape:connector-curvature="0"
           sodipodi:nodetypes="sssssss" />
        <path
           style="fill:#999999;fill-rule:evenodd;stroke:#000000;stroke-width:5;stroke-linecap:round;stroke-linejoin:round;stroke-miterlimit:4;stroke-dasharray:none;stroke-opacity:1"
           d="m -39.001483,507.20814 c -33.158424,19.39967 -65.094877,39.61398 -71.069367,77.13627 -9.17023,35.24578 -12.79353,70.49157 7.80029,105.73735 16.019249,19.0466 34.831847,28.31648 55.46878,31.20119 30.113599,-1.77583 58.570116,-6.03728 84.069864,-14.73389 12.050083,-18.40655 0.110497,-24.1761 -7.800297,-32.06789 l -70.309121,-11.00354 c -4.642674,21.93105 -3.415699,17.51029 -1.779021,23.07651 l 9.685769,0.92752 25.1342894,-3.46679 -30.3344864,6.06689 -16.467293,2.6001 -15.600593,-4.3335 -21.667491,-42.46828 c -16.69239,-37.95843 4.095685,-57.17663 18.200692,-79.73636 l 17.333993,-17.334 25.134289,-13.86719 9.533695,-12.13379 0.253723,-18.14201 z"
           id="path68009"
           inkscape:connector-curvature="0"
           sodipodi:nodetypes="cccccccccccccccccccc" />
        <path
           inkscape:connector-curvature="0"
           style="opacity:1;fill:#999999;fill-opacity:1;fill-rule:evenodd;stroke:#000000;stroke-width:5;stroke-linecap:round;stroke-linejoin:round;stroke-miterlimit:4;stroke-dasharray:none;stroke-opacity:1"
           d="M 65.129448,507.20813 A 33.494911,64.262749 0 0 1 31.634537,571.47088 33.494911,64.262749 0 0 1 -1.8603745,507.20813 33.494911,64.262749 0 0 1 31.634537,442.94538 33.494911,64.262749 0 0 1 65.129448,507.20813 Z"
           id="path68003" />
        <path
           style="fill:none;fill-rule:evenodd;stroke:#000000;stroke-width:3;stroke-linecap:round;stroke-linejoin:round;stroke-miterlimit:4;stroke-dasharray:none;stroke-opacity:1"
           d="m -2.2909225,454.43142 c 7.4454982,1.71819 7.4454982,1.71819 7.4454982,1.71819"
           id="path68052"
           inkscape:connector-curvature="0" />
        <path
           inkscape:connector-curvature="0"
           id="path68054"
           d="m 1.7181919,449.27684 c 7.4454982,1.71819 7.4454982,1.71819 7.4454982,1.71819"
           style="fill:none;fill-rule:evenodd;stroke:#000000;stroke-width:3;stroke-linecap:round;stroke-linejoin:round;stroke-miterlimit:4;stroke-dasharray:none;stroke-opacity:1" />
        <path
           style="fill:none;fill-rule:evenodd;stroke:#000000;stroke-width:3;stroke-linecap:round;stroke-linejoin:round;stroke-miterlimit:4;stroke-dasharray:none;stroke-opacity:1"
           d="m 5.7273063,445.84046 c 7.4454987,1.71819 7.4454987,1.71819 7.4454987,1.71819"
           id="path68056"
           inkscape:connector-curvature="0" />
        <path
           inkscape:connector-curvature="0"
           id="path68058"
           d="m -5.7273064,459.586 c 7.4454987,1.71819 7.4454987,1.71819 7.4454987,1.71819"
           style="fill:none;fill-rule:evenodd;stroke:#000000;stroke-width:3;stroke-linecap:round;stroke-linejoin:round;stroke-miterlimit:4;stroke-dasharray:none;stroke-opacity:1" />
        <path
           style="fill:none;fill-rule:evenodd;stroke:#000000;stroke-width:3;stroke-linecap:round;stroke-linejoin:round;stroke-miterlimit:4;stroke-dasharray:none;stroke-opacity:1"
           d="m -8.5909596,466.45877 c 7.4454987,1.71819 7.4454987,1.71819 7.4454987,1.71819"
           id="path68060"
           inkscape:connector-curvature="0" />
        <path
           inkscape:connector-curvature="0"
           id="path68062"
           d="m -12.600074,474.477 c 7.4454987,1.71819 7.4454987,1.71819 7.4454987,1.71819"
           style="fill:none;fill-rule:evenodd;stroke:#000000;stroke-width:3;stroke-linecap:round;stroke-linejoin:round;stroke-miterlimit:4;stroke-dasharray:none;stroke-opacity:1" />
        <path
           style="fill:none;fill-rule:evenodd;stroke:#000000;stroke-width:3;stroke-linecap:round;stroke-linejoin:round;stroke-miterlimit:4;stroke-dasharray:none;stroke-opacity:1"
           d="m -14.890997,484.21342 c 7.4454992,1.71819 7.4454992,1.71819 7.4454992,1.71819"
           id="path68064"
           inkscape:connector-curvature="0" />
        <path
           inkscape:connector-curvature="0"
           id="path68066"
           d="m -14.890997,495.66803 c 7.4454992,1.71819 7.4454992,1.71819 7.4454992,1.71819"
           style="fill:none;fill-rule:evenodd;stroke:#000000;stroke-width:3;stroke-linecap:round;stroke-linejoin:round;stroke-miterlimit:4;stroke-dasharray:none;stroke-opacity:1" />
        <path
           style="fill:none;fill-rule:evenodd;stroke:#000000;stroke-width:3;stroke-linecap:round;stroke-linejoin:round;stroke-miterlimit:4;stroke-dasharray:none;stroke-opacity:1"
           d="m -15.463728,507.69537 c 7.4454996,1.71819 7.4454996,1.71819 7.4454996,1.71819"
           id="path68068"
           inkscape:connector-curvature="0" />
        <path
           inkscape:connector-curvature="0"
           id="path68070"
           d="m -14.890997,518.00452 c 7.4454992,1.71819 7.4454992,1.71819 7.4454992,1.71819"
           style="fill:none;fill-rule:evenodd;stroke:#000000;stroke-width:3;stroke-linecap:round;stroke-linejoin:round;stroke-miterlimit:4;stroke-dasharray:none;stroke-opacity:1" />
        <path
           style="fill:none;fill-rule:evenodd;stroke:#000000;stroke-width:3;stroke-linecap:round;stroke-linejoin:round;stroke-miterlimit:4;stroke-dasharray:none;stroke-opacity:1"
           d="m -13.745536,527.16821 c 7.4454995,1.71819 7.4454995,1.71819 7.4454995,1.71819"
           id="path68072"
           inkscape:connector-curvature="0" />
        <path
           inkscape:connector-curvature="0"
           id="path68074"
           d="m -12.027344,535.18644 c 7.4454994,1.71819 7.4454994,1.71819 7.4454994,1.71819"
           style="fill:none;fill-rule:evenodd;stroke:#000000;stroke-width:3;stroke-linecap:round;stroke-linejoin:round;stroke-miterlimit:4;stroke-dasharray:none;stroke-opacity:1" />
        <path
           style="fill:none;fill-rule:evenodd;stroke:#000000;stroke-width:3;stroke-linecap:round;stroke-linejoin:round;stroke-miterlimit:4;stroke-dasharray:none;stroke-opacity:1"
           d="m -10.309152,543.20467 c 7.4454993,1.71819 7.4454993,1.71819 7.4454993,1.71819"
           id="path68076"
           inkscape:connector-curvature="0" />
        <path
           inkscape:connector-curvature="0"
           id="path68078"
           d="m -6.8727682,550.65017 c 7.4454993,1.71819 7.4454993,1.71819 7.4454993,1.71819"
           style="fill:none;fill-rule:evenodd;stroke:#000000;stroke-width:3;stroke-linecap:round;stroke-linejoin:round;stroke-miterlimit:4;stroke-dasharray:none;stroke-opacity:1" />
        <path
           style="fill:none;fill-rule:evenodd;stroke:#000000;stroke-width:3;stroke-linecap:round;stroke-linejoin:round;stroke-miterlimit:4;stroke-dasharray:none;stroke-opacity:1"
           d="m -4.5818457,555.80475 c 7.4454993,1.71819 7.4454993,1.71819 7.4454993,1.71819"
           id="path68080"
           inkscape:connector-curvature="0" />
        <path
           inkscape:connector-curvature="0"
           id="path68082"
           d="M -6.300204e-7,560.3866 C 7.4454987,562.10479 7.4454987,562.10479 7.4454987,562.10479"
           style="fill:none;fill-rule:evenodd;stroke:#000000;stroke-width:3;stroke-linecap:round;stroke-linejoin:round;stroke-miterlimit:4;stroke-dasharray:none;stroke-opacity:1" />
        <path
           style="fill:#7e7eb6;fill-opacity:1;fill-rule:evenodd;stroke:#000000;stroke-width:5;stroke-linecap:round;stroke-linejoin:round;stroke-miterlimit:4;stroke-dasharray:none;stroke-opacity:1"
           d="m -224.51041,548.93198 -9.16369,11.45461 57.27306,2.29092 7.4455,-13.74553 z"
           id="path68084"
           inkscape:connector-curvature="0"
           sodipodi:nodetypes="ccccc" />
        <path
           inkscape:connector-curvature="0"
           id="path68086"
           d="m -212.48307,632.55065 -11.45461,13.1728 59.56398,-1.71819 4.58185,-12.02734 z"
           style="fill:#7e7eb6;fill-opacity:1;fill-rule:evenodd;stroke:#000000;stroke-width:5;stroke-linecap:round;stroke-linejoin:round;stroke-miterlimit:4;stroke-dasharray:none;stroke-opacity:1"
           sodipodi:nodetypes="ccccc" />
        <path
           sodipodi:nodetypes="ccccc"
           inkscape:connector-curvature="0"
           id="path68088"
           d="m -210.76487,446.98593 -4.00911,-12.60008 52.69121,0.57273 6.87277,12.02735 z"
           style="fill:#7e7eb6;fill-opacity:1;fill-rule:evenodd;stroke:#000000;stroke-width:5;stroke-linecap:round;stroke-linejoin:round;stroke-miterlimit:4;stroke-dasharray:none;stroke-opacity:1" />
        <path
           style="fill:#7e7eb6;fill-opacity:1;fill-rule:evenodd;stroke:#000000;stroke-width:5;stroke-linecap:round;stroke-linejoin:round;stroke-miterlimit:4;stroke-dasharray:none;stroke-opacity:1"
           d="m -178.11923,364.51271 -6.87276,-16.60919 54.4094,-2.29093 6.87277,16.6092 z"
           id="path68090"
           inkscape:connector-curvature="0"
           sodipodi:nodetypes="ccccc" />
      </g>
    </g>
    <g
       transform="scale(1.2152158,0.82289909)"
       style="font-style:normal;font-weight:normal;font-size:31.71736145px;line-height:125%;font-family:sans-serif;letter-spacing:0px;word-spacing:0px;fill:#000000;fill-opacity:1;stroke:none;stroke-width:1px;stroke-linecap:butt;stroke-linejoin:miter;stroke-opacity:1"
       id="text68137">
      <path
         d="m 93.215711,919.36545 -3.283243,0 0,-3.01997 3.283243,0 0,3.01997 z m -0.185844,20.61318 q 0,3.03546 -1.548699,4.58415 -1.5487,1.5487 -4.150515,1.5487 -0.619479,0 -1.641621,-0.12389 -1.006654,-0.1239 -1.688082,-0.30974 l 0,-2.77217 0.15487,0 q 0.433636,0.17035 1.161524,0.38717 0.743376,0.21682 1.440291,0.21682 1.115063,0 1.796491,-0.30974 0.681428,-0.30974 1.022141,-0.92922 0.340714,-0.61948 0.433636,-1.50224 0.108409,-0.86727 0.108409,-2.12172 l 0,-13.93829 -3.608469,0 0,-2.44695 6.520024,0 0,17.71712 z"
         style="fill:#cccccc"
         id="path68144" />
      <path
         d="m 114.49484,933.07144 -3.42263,0 0,6.48905 -2.9735,0 0,-6.48905 -11.042225,0 0,-3.56201 11.166125,-13.00908 2.8496,0 0,14.09317 3.42263,0 0,2.47792 z m -6.39613,-2.47792 0,-10.40726 -8.935994,10.40726 8.935994,0 z"
         style="fill:#cccccc"
         id="path68146" />
      <path
         d="m 134.14783,930.70193 q 0,2.10623 -0.60399,3.85626 -0.60399,1.73454 -1.70357,2.94253 -1.02214,1.14603 -2.41597,1.781 -1.37834,0.61948 -2.92704,0.61948 -1.34737,0 -2.44695,-0.29425 -1.08409,-0.29426 -2.21464,-0.91374 l 0,7.24792 -2.91155,0 0,-23.67962 2.91155,0 0,1.81198 q 1.16153,-0.97568 2.60182,-1.62613 1.45578,-0.66594 3.0974,-0.66594 3.12837,0 4.86291,2.36951 1.75003,2.35402 1.75003,6.551 z m -3.00447,0.0774 q 0,-3.12837 -1.06861,-4.67707 -1.0686,-1.5487 -3.28324,-1.5487 -1.25445,0 -2.52438,0.54204 -1.26993,0.54205 -2.43146,1.42481 l 0,9.80326 q 1.23896,0.55754 2.12172,0.75887 0.89825,0.20133 2.0288,0.20133 2.43146,0 3.79431,-1.64162 1.36286,-1.64162 1.36286,-4.86292 z"
         style="fill:#cccccc"
         id="path68148" />
      <path
         d="m 154.45128,933.07144 -3.42263,0 0,6.48905 -2.9735,0 0,-6.48905 -11.04222,0 0,-3.56201 11.16612,-13.00908 2.8496,0 0,14.09317 3.42263,0 0,2.47792 z m -6.39613,-2.47792 0,-10.40726 -8.93599,10.40726 8.93599,0 z"
         style="fill:#cccccc"
         id="path68150" />
      <path
         d="m 173.34541,939.56049 -2.91155,0 0,-9.84973 q 0,-1.1925 -0.13939,-2.23013 -0.13938,-1.05311 -0.51107,-1.64162 -0.38717,-0.65045 -1.11506,-0.96019 -0.72789,-0.32523 -1.88942,-0.32523 -1.19249,0 -2.4934,0.58851 -1.30091,0.5885 -2.49341,1.50223 l 0,12.91616 -2.91155,0 0,-17.29898 2.91155,0 0,1.92039 q 1.36286,-1.13055 2.81864,-1.76552 1.45577,-0.63496 2.98899,-0.63496 2.80314,0 4.27441,1.68808 1.47126,1.68808 1.47126,4.86292 l 0,11.22807 z"
         style="fill:#cccccc"
         id="path68152" />
      <path
         d="m 102.56985,970.56545 q 0,4.22794 -2.16817,6.67489 -2.168184,2.44694 -5.807627,2.44694 -3.670417,0 -5.838596,-2.44694 -2.152692,-2.44695 -2.152692,-6.67489 0,-4.22795 2.152692,-6.6749 2.168179,-2.46243 5.838596,-2.46243 3.639443,0 5.807627,2.46243 2.16817,2.44695 2.16817,6.6749 z m -3.004472,0 q 0,-3.36068 -1.316395,-4.98682 -1.316394,-1.64162 -3.65493,-1.64162 -2.36951,0 -3.685904,1.64162 -1.300908,1.62614 -1.300908,4.98682 0,3.25226 1.316395,4.94035 1.316394,1.67259 3.670417,1.67259 2.323049,0 3.639443,-1.65711 1.331882,-1.67259 1.331882,-4.95583 z"
         style="fill:#cccccc"
         id="path68154" />
      <path
         d="m 122.31577,970.34863 q 0,2.10623 -0.60399,3.85626 -0.60399,1.73454 -1.70357,2.94253 -1.02214,1.14604 -2.41597,1.781 -1.37834,0.61948 -2.92704,0.61948 -1.34737,0 -2.44695,-0.29425 -1.08409,-0.29425 -2.21464,-0.91373 l 0,7.24791 -2.91155,0 0,-23.67961 2.91155,0 0,1.81197 q 1.16153,-0.97568 2.60182,-1.62613 1.45577,-0.66594 3.09739,-0.66594 3.12838,0 4.86292,2.36951 1.75003,2.35402 1.75003,6.551 z m -3.00448,0.0774 q 0,-3.12837 -1.0686,-4.67707 -1.0686,-1.5487 -3.28324,-1.5487 -1.25445,0 -2.52438,0.54205 -1.26993,0.54204 -2.43146,1.4248 l 0,9.80327 q 1.23896,0.55753 2.12172,0.75886 0.89825,0.20133 2.0288,0.20133 2.43145,0 3.79431,-1.64162 1.36285,-1.64162 1.36285,-4.86292 z"
         style="fill:#cccccc"
         id="path68156" />
      <path
         d="m 141.3338,970.8597 -12.7458,0 q 0,1.59516 0.4801,2.78766 0.4801,1.17701 1.31639,1.93587 0.80533,0.74338 1.9049,1.11506 1.11507,0.37169 2.44695,0.37169 1.76552,0 3.54652,-0.69691 1.79649,-0.7124 2.55535,-1.39383 l 0.15487,0 0,3.17483 q -1.47126,0.61948 -3.00447,1.03763 -1.53322,0.41815 -3.2213,0.41815 -4.30538,0 -6.72135,-2.32305 -2.41597,-2.33854 -2.41597,-6.62843 0,-4.24344 2.30756,-6.73684 2.32305,-2.49341 6.10187,-2.49341 3.50006,0 5.38948,2.04428 1.9049,2.04429 1.9049,5.80763 l 0,1.57967 z m -2.83412,-2.23013 q -0.0155,-2.29207 -1.16153,-3.54652 -1.13055,-1.25445 -3.4536,-1.25445 -2.33853,0 -3.73236,1.37835 -1.37834,1.37834 -1.56419,3.42262 l 9.91168,0 z"
         style="fill:#cccccc"
         id="path68158" />
      <path
         d="m 160.21244,979.20719 -2.91155,0 0,-9.84973 q 0,-1.1925 -0.13939,-2.23013 -0.13938,-1.05311 -0.51107,-1.64162 -0.38717,-0.65045 -1.11506,-0.96019 -0.72789,-0.32523 -1.88941,-0.32523 -1.1925,0 -2.49341,0.58851 -1.30091,0.5885 -2.49341,1.50224 l 0,12.91615 -2.91155,0 0,-17.29897 2.91155,0 0,1.92038 q 1.36286,-1.13055 2.81864,-1.76551 1.45577,-0.63497 2.98899,-0.63497 2.80314,0 4.27441,1.68808 1.47126,1.68808 1.47126,4.86292 l 0,11.22807 z"
         style="fill:#cccccc"
         id="path68160" />
      <path
         d="m 178.61099,978.1231 q -1.45578,0.69691 -2.77218,1.08409 -1.3009,0.38717 -2.77217,0.38717 -1.87392,0 -3.43811,-0.54204 -1.56419,-0.55753 -2.67925,-1.6726 -1.13055,-1.11506 -1.75003,-2.81863 -0.61948,-1.70357 -0.61948,-3.98016 0,-4.24343 2.32305,-6.6594 2.33854,-2.41598 6.16382,-2.41598 1.48675,0 2.91156,0.41815 1.44029,0.41815 2.63279,1.02215 l 0,3.23678 -0.15487,0 q -1.33189,-1.03763 -2.75669,-1.59516 -1.40932,-0.55754 -2.75668,-0.55754 -2.47792,0 -3.91821,1.6726 -1.42481,1.65711 -1.42481,4.8784 0,3.12838 1.39383,4.81646 1.40932,1.67259 3.94919,1.67259 0.88276,0 1.79649,-0.2323 0.91373,-0.23231 1.64162,-0.60399 0.63497,-0.32523 1.1925,-0.68143 0.55753,-0.37169 0.88276,-0.63497 l 0.15487,0 0,3.20581 z"
         style="fill:#cccccc"
         id="path68162" />
      <path
         d="m 185.30137,979.20719 -2.91156,0 0,-24.09776 2.91156,0 0,24.09776 z"
         style="fill:#cccccc"
         id="path68164" />
      <path
         d="m 194.22188,959.01215 -3.28325,0 0,-3.01996 3.28325,0 0,3.01996 z m -0.18585,20.19504 -2.91155,0 0,-17.29897 2.91155,0 0,17.29897 z"
         style="fill:#cccccc"
         id="path68166" />
      <path
         d="m 215.05188,970.34863 q 0,2.10623 -0.60399,3.85626 -0.60399,1.73454 -1.70357,2.94253 -1.02214,1.14604 -2.41597,1.781 -1.37834,0.61948 -2.92704,0.61948 -1.34737,0 -2.44695,-0.29425 -1.08409,-0.29425 -2.21464,-0.91373 l 0,7.24791 -2.91155,0 0,-23.67961 2.91155,0 0,1.81197 q 1.16153,-0.97568 2.60182,-1.62613 1.45577,-0.66594 3.0974,-0.66594 3.12837,0 4.86291,2.36951 1.75003,2.35402 1.75003,6.551 z m -3.00448,0.0774 q 0,-3.12837 -1.0686,-4.67707 -1.0686,-1.5487 -3.28324,-1.5487 -1.25445,0 -2.52438,0.54205 -1.26993,0.54204 -2.43146,1.4248 l 0,9.80327 q 1.23896,0.55753 2.12172,0.75886 0.89825,0.20133 2.0288,0.20133 2.43145,0 3.79431,-1.64162 1.36285,-1.64162 1.36285,-4.86292 z"
         style="fill:#cccccc"
         id="path68168" />
      <path
         d="m 233.03228,979.20719 -2.89606,0 0,-1.84295 q -0.38718,0.26327 -1.05312,0.74337 -0.65045,0.46461 -1.26993,0.74338 -0.72789,0.3562 -1.6726,0.5885 -0.94471,0.24779 -2.21464,0.24779 -2.33853,0 -3.96467,-1.54869 -1.62613,-1.5487 -1.62613,-3.94919 0,-1.96685 0.83629,-3.17483 0.85179,-1.22347 2.41598,-1.92039 1.57967,-0.69691 3.79431,-0.94471 2.21464,-0.24779 4.75451,-0.37168 l 0,-0.44913 q 0,-0.99116 -0.35621,-1.64162 -0.34071,-0.65045 -0.99116,-1.02214 -0.61948,-0.3562 -1.48675,-0.4801 -0.86728,-0.12389 -1.81198,-0.12389 -1.14604,0 -2.55536,0.30974 -1.40931,0.29425 -2.91155,0.86727 l -0.15487,0 0,-2.95802 q 0.85178,-0.2323 2.46243,-0.51107 1.61065,-0.27876 3.17483,-0.27876 1.82747,0 3.17484,0.30974 1.36285,0.29425 2.35402,1.02214 0.97568,0.7124 1.48675,1.84295 0.51107,1.13055 0.51107,2.80315 l 0,11.73914 z m -2.89606,-4.25893 0,-4.81645 q -1.33189,0.0774 -3.14386,0.2323 -1.7965,0.15487 -2.84961,0.44913 -1.25445,0.3562 -2.0288,1.11506 -0.77435,0.74338 -0.77435,2.05977 0,1.48675 0.89825,2.24562 0.89824,0.74337 2.7412,0.74337 1.53321,0 2.80314,-0.58851 1.26994,-0.60399 2.35403,-1.44029 z"
         style="fill:#cccccc"
         id="path68170" />
      <path
         d="m 249.40203,965.08305 -0.15487,0 q -0.65046,-0.15487 -1.26994,-0.21682 -0.60399,-0.0774 -1.44029,-0.0774 -1.34736,0 -2.60181,0.60399 -1.25445,0.58851 -2.41597,1.53321 l 0,12.28119 -2.91156,0 0,-17.29897 2.91156,0 0,2.55535 q 1.73454,-1.39383 3.05094,-1.96685 1.33188,-0.5885 2.71022,-0.5885 0.75886,0 1.09958,0.0465 0.34071,0.031 1.02214,0.13938 l 0,2.98899 z"
         style="fill:#cccccc"
         id="path68172" />
      <path
         d="m 261.15665,979.05232 q -0.82081,0.21682 -1.79649,0.3562 -0.96019,0.13938 -1.71905,0.13938 -2.64828,0 -4.02662,-1.4248 -1.37834,-1.42481 -1.37834,-4.56866 l 0,-9.19928 -1.96685,0 0,-2.44694 1.96685,0 0,-4.97133 2.91155,0 0,4.97133 6.00895,0 0,2.44694 -6.00895,0 0,7.88288 q 0,1.36286 0.062,2.13721 0.0619,0.75886 0.43364,1.4248 0.34071,0.61948 0.92921,0.91373 0.604,0.27877 1.82747,0.27877 0.7124,0 1.48675,-0.20133 0.77435,-0.21682 1.11506,-0.3562 l 0.15487,0 0,2.6173 z"
         style="fill:#cccccc"
         id="path68174" />
      <path
         d="m 269.44219,979.20719 -3.70139,0 0,-4.4138 3.70139,0 0,4.4138 z"
         style="fill:#cccccc"
         id="path68176" />
      <path
         d="m 290.95363,970.56545 q 0,4.22794 -2.16818,6.67489 -2.16818,2.44694 -5.80762,2.44694 -3.67042,0 -5.8386,-2.44694 -2.15269,-2.44695 -2.15269,-6.67489 0,-4.22795 2.15269,-6.6749 2.16818,-2.46243 5.8386,-2.46243 3.63944,0 5.80762,2.46243 2.16818,2.44695 2.16818,6.6749 z m -3.00448,0 q 0,-3.36068 -1.31639,-4.98682 -1.3164,-1.64162 -3.65493,-1.64162 -2.36951,0 -3.68591,1.64162 -1.3009,1.62614 -1.3009,4.98682 0,3.25226 1.31639,4.94035 1.31639,1.67259 3.67042,1.67259 2.32305,0 3.63944,-1.65711 1.33188,-1.67259 1.33188,-4.95583 z"
         style="fill:#cccccc"
         id="path68178" />
      <path
         d="m 306.27027,965.08305 -0.15487,0 q -0.65046,-0.15487 -1.26993,-0.21682 -0.604,-0.0774 -1.4403,-0.0774 -1.34736,0 -2.60181,0.60399 -1.25445,0.58851 -2.41597,1.53321 l 0,12.28119 -2.91156,0 0,-17.29897 2.91156,0 0,2.55535 q 1.73454,-1.39383 3.05094,-1.96685 1.33188,-0.5885 2.71022,-0.5885 0.75886,0 1.09958,0.0465 0.34071,0.031 1.02214,0.13938 l 0,2.98899 z"
         style="fill:#cccccc"
         id="path68180" />
      <path
         d="m 323.07365,977.24034 q 0,4.39831 -1.99782,6.45808 -1.99782,2.05977 -6.14833,2.05977 -1.37835,0 -2.69474,-0.20134 -1.30091,-0.18584 -2.57084,-0.54204 l 0,-2.9735 0.15487,0 q 0.7124,0.27876 2.2611,0.68143 1.5487,0.41814 3.0974,0.41814 1.48675,0 2.46243,-0.3562 0.97568,-0.3562 1.51773,-0.99116 0.54204,-0.604 0.77434,-1.45578 0.23231,-0.85179 0.23231,-1.9049 l 0,-1.57968 q -1.31639,1.05312 -2.52438,1.57968 -1.1925,0.51107 -3.05094,0.51107 -3.0974,0 -4.92486,-2.23013 -1.81198,-2.24561 -1.81198,-6.31869 0,-2.23013 0.61948,-3.84078 0.63497,-1.62613 1.71906,-2.80314 1.00665,-1.09958 2.44694,-1.70357 1.44029,-0.61948 2.86509,-0.61948 1.50224,0 2.5089,0.30974 1.02214,0.29425 2.15269,0.91373 l 0.18584,-0.74337 2.72571,0 0,15.33212 z m -2.91155,-2.78766 0,-9.43158 q -1.16152,-0.52656 -2.16818,-0.74337 -0.99117,-0.23231 -1.98233,-0.23231 -2.40049,0 -3.77883,1.61065 -1.37834,1.61065 -1.37834,4.67707 0,2.91156 1.02214,4.41379 1.02214,1.50224 3.39165,1.50224 1.26993,0 2.53987,-0.48009 1.28542,-0.49559 2.35402,-1.3164 z"
         style="fill:#cccccc"
         id="path68182" />
    </g>
  </g>
</svg>
